<svg width="130" height="119" viewBox="0 0 130 119" fill="none" xmlns="http://www.w3.org/2000/svg">
<rect x="41.25" y="15.25" width="62.5" height="90.5" rx="2.75" fill="white" stroke="#C4C4C4" stroke-width="0.5"/>
<mask id="path-2-inside-1" fill="white">
<path fill-rule="evenodd" clip-rule="evenodd" d="M74.075 25L91 41.5122V113C91 114.657 89.6569 116 88 116H31C29.3431 116 28 114.657 28 113V28C28 26.3431 29.3431 25 31 25H73.5H74.075Z"/>
</mask>
<path fill-rule="evenodd" clip-rule="evenodd" d="M74.075 25L91 41.5122V113C91 114.657 89.6569 116 88 116H31C29.3431 116 28 114.657 28 113V28C28 26.3431 29.3431 25 31 25H73.5H74.075Z" fill="white"/>
<path d="M73.3259 25.1794L90.3259 41.6794L90.6741 41.3206L73.6741 24.8206L73.3259 25.1794ZM74.075 25L74.4242 24.6421L74.2785 24.5H74.075V25ZM91 41.5122H91.5V41.3015L91.3492 41.1543L91 41.5122ZM73.7258 25.3579L90.6508 41.8701L91.3492 41.1543L74.4242 24.6421L73.7258 25.3579ZM90.5 41.5122V113H91.5V41.5122H90.5ZM90.5 113C90.5 114.381 89.3807 115.5 88 115.5V116.5C89.933 116.5 91.5 114.933 91.5 113H90.5ZM88 115.5H31V116.5H88V115.5ZM31 115.5C29.6193 115.5 28.5 114.381 28.5 113H27.5C27.5 114.933 29.067 116.5 31 116.5V115.5ZM28.5 113V28H27.5V113H28.5ZM28.5 28C28.5 26.6193 29.6193 25.5 31 25.5V24.5C29.067 24.5 27.5 26.067 27.5 28H28.5ZM31 25.5H73.5V24.5H31V25.5ZM73.5 25.5H74.075V24.5H73.5V25.5Z" fill="#C4C4C4" mask="url(#path-2-inside-1)"/>
<path d="M73.5 39V25L90.5 41.5H76C74 41.5 73.5 39.8333 73.5 39Z" fill="#C4C4C4"/>
<path fill-rule="evenodd" clip-rule="evenodd" d="M119 43H118V45.5H115.5V46.5H118V49H119V46.5H121.5V45.5H119V43Z" fill="#C4C4C4"/>
<path fill-rule="evenodd" clip-rule="evenodd" d="M13.5 78H12.5V80.5H10V81.5H12.5V84H13.5V81.5H16V80.5H13.5V78Z" fill="#C4C4C4"/>
<rect x="37" y="85" width="45" height="1" fill="#C4C4C4"/>
<rect x="37" y="92" width="45" height="1" fill="#C4C4C4"/>
<rect x="37" y="98" width="45" height="1" fill="#C4C4C4"/>
<rect x="37" y="104" width="45" height="1" fill="#C4C4C4"/>
<path fill-rule="evenodd" clip-rule="evenodd" d="M64.626 7.24979L62.3325 9.31396L62.667 9.68561L64.9998 7.58613L67.3325 9.68561L67.667 9.31396L65.3735 7.24979L67.667 5.18561L67.3325 4.81396L64.9998 6.91345L62.667 4.81396L62.3325 5.18561L64.626 7.24979Z" fill="#C4C4C4"/>
<circle cx="126.5" cy="63.5" r="3.25" stroke="#C4C4C4" stroke-width="0.5"/>
<circle cx="31.5" cy="3.5" r="3.25" stroke="#C4C4C4" stroke-width="0.5"/>
<circle cx="3.5" cy="98.5" r="3.25" stroke="#C4C4C4" stroke-width="0.5"/>
<rect x="100" y="108" width="1" height="4" fill="#C4C4C4"/>
<rect x="106" y="113" width="1" height="4" transform="rotate(90 106 113)" fill="#C4C4C4"/>
<rect x="99" y="113" width="1" height="4" transform="rotate(90 99 113)" fill="#C4C4C4"/>
<rect x="100" y="115" width="1" height="4" fill="#C4C4C4"/>
<path d="M75.955 72.4308C75.6173 72.3643 75.2974 72.579 75.2292 72.9112C74.5427 76.2956 71.8798 78.5697 68.6037 78.5697C65.5109 78.5697 62.7933 76.5398 61.8694 73.6487H64.7598V72.4185H59.8389V77.3394H61.0691V74.9718C62.4033 77.8512 65.3227 79.7999 68.6037 79.7999C72.4814 79.7999 75.6284 77.1297 76.4348 73.156C76.5025 72.8232 76.2878 72.499 75.955 72.4308Z" fill="#C4C4C4"/>
<path d="M75.8316 65.0377V67.6883C74.4476 64.9485 71.7079 63.1924 68.6033 63.1924C64.8456 63.1924 61.5042 65.651 60.4782 69.172C60.3835 69.498 60.5705 69.8394 60.8971 69.9341C61.2237 70.0276 61.5651 69.8412 61.6593 69.5152C62.5192 66.5645 65.4398 64.4226 68.6033 64.4226C71.4114 64.4226 73.87 66.124 74.9575 68.7285H72.1409V69.9587H77.0619V65.0377H75.8316Z" fill="#C4C4C4"/>
<path d="M57.466 70.5175C57.7674 68.0767 58.9103 65.8967 60.5981 64.274C60.0728 64.3042 59.5346 64.3269 58.9816 64.3423C58.4465 64.3589 57.9113 64.3675 57.3786 64.3675C56.8441 64.3675 56.3071 64.3589 55.7707 64.3417C51.2551 64.218 47.6566 63.5802 45.0658 62.6704C43.8478 62.2601 42.8052 61.7766 42 61.2236V65.5977V65.9053V66.2129V67.0058C43.7506 68.8333 49.6238 70.5187 57.378 70.5187C57.4081 70.5187 57.4364 70.5175 57.466 70.5175Z" fill="#C4C4C4"/>
<path d="M55.9239 62.4317C56.1244 62.4373 56.3243 62.4428 56.5279 62.4459C56.8084 62.4508 57.092 62.4533 57.378 62.4533C57.664 62.4533 57.9476 62.4508 58.2287 62.4465C58.4317 62.4434 58.6322 62.4373 58.8328 62.4324C58.9041 62.4305 58.9767 62.4293 59.0474 62.4274C65.9694 62.2066 71.1333 60.6344 72.756 58.9409V58.1474V57.8399V57.5323V53.1582C69.7622 55.2145 63.4332 56.3021 57.378 56.3021C51.3228 56.3021 44.9938 55.2145 42 53.1582V57.5323V57.8399V58.1474V58.9403C43.6227 60.6344 48.7866 62.2066 55.7086 62.4268C55.7799 62.4287 55.8525 62.4299 55.9239 62.4317Z" fill="#C4C4C4"/>
<path d="M72.756 50.9545V49.8436V49.5361C72.756 49.4327 72.7215 49.3399 72.673 49.2544C71.9828 46.6087 66.6755 44 57.378 44C48.1038 44 42.8021 46.5958 42.0904 49.2347C42.0381 49.3251 42 49.4241 42 49.5361V49.8436V50.9545C43.7451 52.7759 49.5764 54.457 57.378 54.457C65.1796 54.457 71.0115 52.7759 72.756 50.9545Z" fill="#C4C4C4"/>
<path d="M57.4094 72.4185C57.3989 72.4185 57.3891 72.4185 57.378 72.4185C49.7837 72.4185 44.5429 71.0099 42 69.2192V74.2638C42 74.3635 42.0265 74.4576 42.072 74.5413C42.7984 77.5523 49.2978 79.7999 57.378 79.7999C58.6082 79.7999 59.7954 79.7421 60.9377 79.6431C58.906 77.8531 57.5779 75.2923 57.4094 72.4185Z" fill="#C4C4C4"/>
</svg>
